<?xml version="1.0" encoding="UTF-8" standalone="no"?>
<!-- Created with Inkscape (http://www.inkscape.org/) -->

<svg
   width="210mm"
   height="297mm"
   viewBox="0 0 210 297"
   version="1.1"
   id="svg5"
   inkscape:version="1.1.1 (3bf5ae0d25, 2021-09-20)"
   sodipodi:docname="termometro.svg"
   xmlns:inkscape="http://www.inkscape.org/namespaces/inkscape"
   xmlns:sodipodi="http://sodipodi.sourceforge.net/DTD/sodipodi-0.dtd"
   xmlns="http://www.w3.org/2000/svg"
   xmlns:svg="http://www.w3.org/2000/svg">
  <sodipodi:namedview
     id="namedview7"
     pagecolor="#ffffff"
     bordercolor="#666666"
     borderopacity="1.0"
     inkscape:pageshadow="2"
     inkscape:pageopacity="0.0"
     inkscape:pagecheckerboard="0"
     inkscape:document-units="mm"
     showgrid="false"
     inkscape:zoom="0.34394079"
     inkscape:cx="1443.5624"
     inkscape:cy="774.84268"
     inkscape:window-width="1536"
     inkscape:window-height="841"
     inkscape:window-x="73"
     inkscape:window-y="-8"
     inkscape:window-maximized="1"
     inkscape:current-layer="layer1" />
  <defs
     id="defs2" />
  <g
     inkscape:label="Camada 1"
     inkscape:groupmode="layer"
     id="layer1">
    <g
       id="g7230"
       transform="translate(200.77947,-51.541091)">
      <path
         style="fill:#d40000;fill-opacity:1;stroke-width:0.459703"
         d="M 68.15166,298.62219 C 57.8316,295.64683 49.76343,287.20087 47.96913,277.49463 c -1.83873,-9.94664 0.8357,-19.10337 7.52833,-25.77554 3.40348,-3.39307 3.83393,-3.72317 7.13776,-5.47379 l 2.06867,-1.09614 0.22985,-65.89905 c 0.22108,-63.38546 0.26281,-65.95956 1.09394,-67.48553 1.82993,-3.35976 2.71872,-3.7001 9.66285,-3.7001 h 5.76052 l 1.61378,1.41693 c 0.90529,0.79485 1.8194,2.15716 2.0821,3.10299 0.30777,1.1081 0.46918,24.07744 0.47087,67.00651 l 0.003,65.32043 2.18358,1.09257 c 9.73036,4.86858 15.71602,14.41874 15.73802,25.11006 0.0269,13.08099 -8.33347,24.09449 -20.90967,27.54525 -2.88804,0.79244 -11.68161,0.76996 -14.48064,-0.037 z m 24.93953,-11.7256 c 1.59336,-1.25333 4.822842,-7.94034 5.447519,-11.27969 0.619637,-3.31241 0.2164,-9.21321 -0.793159,-11.6067 -2.74861,-6.51652 -4.5522,-8.84085 -6.86016,-8.84085 -1.60856,0 -2.96651,1.28759 -2.96651,2.81279 0,0.42318 0.77574,2.39409 1.72388,4.37982 1.6957,3.55137 1.72389,3.70062 1.72389,9.12684 0,5.42623 -0.0282,5.57547 -1.72389,9.12684 -0.94814,1.98573 -1.72388,3.87134 -1.72388,4.19026 0,1.08091 1.89397,3.00235 2.95943,3.00235 0.57965,0 1.57544,-0.41025 2.21288,-0.91166 z"
         id="path1966" />
      <path
         style="fill:#040404;stroke-width:0.459703"
         d="m 68.774728,314.47204 c -0.63209,-0.11341 -2.18359,-0.5017 -3.44777,-0.86286 -1.26418,-0.36116 -3.18394,-0.88278 -4.26612,-1.15916 -1.23857,-0.31631 -1.85099,-0.69121 -1.65286,-1.01178 0.17861,-0.28899 0.1068,-0.38076 -0.16602,-0.21215 -0.97116,0.60021 -7.39962,-2.83667 -6.67017,-3.56611 0.17334,-0.17335 -0.0503,-0.17493 -0.49704,-0.004 -0.48429,0.18584 -1.12823,0.0167 -1.59495,-0.41891 -0.4305,-0.40182 -1.49665,-1.30689 -2.36921,-2.01126 -2.88802,-2.33135 -6.50294,-6.12316 -6.24121,-6.54664 0.14167,-0.22924 0.0154,-0.56649 -0.28064,-0.74944 -0.35676,-0.2205 -0.42557,-0.11497 -0.20409,0.31301 0.18377,0.35511 -0.20533,0.025 -0.86466,-0.73345 -0.65932,-0.75851 -1.54269,-2.10314 -1.96303,-2.98807 -0.42034,-0.88493 -0.95669,-1.74098 -1.19188,-1.90234 -0.23519,-0.16136 -0.26573,-0.55534 -0.0678,-0.87551 0.25072,-0.40567 0.17521,-0.46806 -0.24908,-0.20583 -0.44578,0.2755 -0.52778,0.16501 -0.30615,-0.41255 0.16649,-0.43387 0.13089,-0.68266 -0.0791,-0.55287 -0.67404,0.41658 -2.47557,-3.8069 -2.19821,-5.15347 0.14056,-0.68241 0.13228,-0.94971 -0.0184,-0.59399 -0.55019,1.29887 -2.03239,-3.93597 -2.55912,-9.03826 -0.54071,-5.23781 0.0103,-14.22123 0.94811,-15.45784 0.21477,-0.28319 0.75793,-1.91124 1.20702,-3.61789 0.44909,-1.70665 0.99648,-3.10299 1.21643,-3.10299 0.21994,0 0.52933,-0.51574 0.68754,-1.14608 0.15821,-0.63035 0.47008,-1.03334 0.69305,-0.89553 0.22297,0.1378 0.26918,-0.10443 0.10269,-0.5383 -0.19331,-0.50374 -0.12383,-0.67828 0.19225,-0.48294 0.31487,0.1946 0.40741,-0.0289 0.25436,-0.61414 -0.13233,-0.50584 -0.0235,-0.91986 0.24174,-0.91986 0.26529,0 0.61461,-0.41674 0.77627,-0.92608 0.16166,-0.50935 0.51786,-0.78768 0.79156,-0.61853 0.30657,0.18947 0.36413,0.0915 0.14991,-0.25507 -0.37146,-0.60103 -0.25718,-0.75147 3.50769,-4.61814 1.34434,-1.38069 2.13396,-2.34796 1.75471,-2.1495 -0.37926,0.19847 -0.27583,0.0359 0.22985,-0.36131 0.50567,-0.39719 1.90202,-1.58771 3.10299,-2.6456 l 2.18359,-1.92343 v -62.18395 c 0,-62.38788 0.0822,-65.90189 1.58504,-67.74564 0.30913,-0.37925 0.82699,-1.35924 1.15081,-2.17774 0.32383,-0.81851 0.77163,-1.37518 0.99512,-1.23706 0.22349,0.13813 0.41095,-0.0197 0.41657,-0.35062 0.006,-0.33096 0.43731,-1.11892 0.9593,-1.75101 0.52199,-0.632091 0.81235,-0.838961 0.64524,-0.459701 -0.17639,0.400321 -0.0159,0.33654 0.3827,-0.15204 0.3776,-0.46288 1.06525,-1.15053 1.52813,-1.52813 0.51503,-0.42014 0.57402,-0.57746 0.15203,-0.40545 -0.37925,0.15459 -0.29397,0.0148 0.18952,-0.31069 0.48348,-0.32547 1.27523,-0.96977 1.75943,-1.43179 0.48419,-0.46201 1.18541,-0.72296 1.55825,-0.57989 0.37283,0.14307 0.5618,0.0723 0.41992,-0.15726 -0.14188,-0.22956 0.51969,-0.66789 1.47016,-0.97405 0.95046,-0.30616 2.01872,-0.78828 2.3739,-1.07138 0.87081,-0.69408 18.49472,-0.71157 19.3959,-0.0192 0.35471,0.27251 1.60221,0.84883 2.77223,1.2807 1.17,0.43188 2.49498,1.19154 2.94438,1.68812 0.44941,0.49659 1.00813,0.90289 1.2416,0.90289 0.36664,0 1.85506,1.49181 4.73671,4.747491 0.40893,0.46202 0.62646,1.14508 0.48339,1.51791 -0.16702,0.43525 -0.0695,0.56008 0.27243,0.34875 0.36811,-0.22751 0.42996,-0.0618 0.20029,0.53674 -0.18275,0.47624 -0.18417,0.71778 -0.003,0.53677 0.65103,-0.65103 2.07813,2.47327 1.81436,3.97212 -0.17711,1.00636 -0.13808,1.1701 0.12923,0.54222 0.31605,-0.74233 0.43545,-0.58168 0.683332,0.91941 0.1652,1.00041 0.30264,29.66209 0.30542,63.69262 0.005,61.0405 0.0173,61.88477 0.91363,62.69593 0.49971,0.45224 0.77804,1.03343 0.61852,1.29154 -0.16543,0.26768 -0.0636,0.32934 0.23705,0.14353 0.2899,-0.17917 0.89075,-0.11399 1.33521,0.14485 0.44447,0.25883 0.65987,0.47689 0.47867,0.48458 -0.34926,0.0148 1.87116,2.28657 3.97427,4.06616 0.73785,0.62435 1.1506,1.34287 0.99875,1.7386 -0.16752,0.43654 0.15999,0.83372 0.92838,1.12586 0.77142,0.2933 1.09613,0.68871 0.92716,1.12903 -0.14301,0.37271 -0.0602,0.62842 0.18392,0.56824 0.88853,-0.21898 4.67833,7.31875 4.32282,8.59787 -0.18886,0.6795 -0.14114,0.7706 0.16918,0.32296 0.3114,-0.44922 0.59367,0.0648 1.00972,1.83881 0.31761,1.35428 0.7463,2.67719 0.95265,2.93981 0.20633,0.26261 0.61934,2.74501 0.91777,5.51643 0.63799,5.92468 0.13489,12.01313 -1.40535,17.00705 -1.18543,3.84351 -2.99059,7.65136 -3.42248,7.21946 -0.17145,-0.17145 -0.16221,0.0779 0.0205,0.55416 0.24903,0.64895 0.17974,0.77161 -0.27658,0.48959 -0.42429,-0.26223 -0.49979,-0.19984 -0.24908,0.20583 0.19788,0.32017 0.16734,0.71415 -0.0679,0.87551 -0.23519,0.16136 -0.78856,1.06913 -1.22972,2.01726 -0.44115,0.94814 -0.99925,1.72389 -1.24023,1.72389 -0.24097,0 -0.43813,0.28497 -0.43813,0.63327 0,0.34829 -0.35001,0.91717 -0.7778,1.26418 -0.66243,0.53734 -0.72008,0.53515 -0.38868,-0.0148 0.26612,-0.44155 0.21899,-0.5405 -0.1491,-0.31301 -0.29603,0.18295 -0.4144,0.53301 -0.26305,0.7779 0.38629,0.62503 -5.69631,6.49065 -6.32672,6.10104 -0.3128,-0.19333 -0.38194,-0.10664 -0.17806,0.22325 0.20785,0.3363 -0.17345,0.75236 -1.01298,1.10536 -0.74045,0.31134 -1.427362,0.77282 -1.526452,1.02552 -0.37365,0.95281 -7.64774,4.49433 -8.34545,4.06312 -0.2733,-0.16892 -0.34527,-0.0774 -0.16653,0.21182 0.19822,0.32074 -0.41369,0.69377 -1.65286,1.00762 -1.08218,0.27408 -3.00194,0.83235 -4.26612,1.24061 -2.24394,0.72465 -13.60978,1.27178 -16.31944,0.78558 z m 8.84927,-0.52202 c -1.32738,-0.0929 -3.49948,-0.0929 -4.82687,0 -1.32739,0.0929 -0.24135,0.16884 2.41344,0.16884 2.65478,0 3.74082,-0.076 2.41343,-0.16884 z m -9.43347,-0.39853 c -0.15276,-0.15275 -0.54926,-0.16908 -0.8811,-0.0363 -0.36672,0.14675 -0.25779,0.25568 0.27774,0.27774 0.4846,0.0199 0.75611,-0.0887 0.60336,-0.24145 z m 2.07823,-6.46255 c -0.31604,-0.12752 -0.83321,-0.12752 -1.14925,0 -0.31605,0.12753 -0.0575,0.23187 0.57463,0.23187 0.63209,0 0.89067,-0.10434 0.57462,-0.23187 z m 10.79344,0.0267 c -0.15276,-0.15275 -0.54926,-0.16908 -0.8811,-0.0363 -0.36672,0.14675 -0.25779,0.25568 0.27774,0.27773 0.4846,0.02 0.75611,-0.0887 0.60336,-0.24144 z m -0.025,-0.68193 c 1.97706,-0.27499 4.4227,-0.87094 5.43477,-1.32434 1.01207,-0.4534 2.35729,-0.97691 2.98938,-1.16336 0.63209,-0.18645 1.50357,-0.64992 1.93661,-1.02993 0.43305,-0.38002 1.11611,-0.56478 1.51791,-0.4106 0.40181,0.15419 0.62344,0.10702 0.49252,-0.10481 -0.13092,-0.21184 0.3175,-0.67491 0.99649,-1.02907 1.4937,-0.77909 2.19151,-1.35067 5.2759,-4.32153 1.312502,-1.26418 2.223972,-1.98822 2.025512,-1.60896 -0.19847,0.37925 -0.0519,0.31084 0.32568,-0.15204 0.3776,-0.46287 1.06525,-1.15053 1.52813,-1.52812 0.46287,-0.37759 0.58301,-0.55556 0.26696,-0.39546 -0.78433,0.39729 -0.73265,-0.54467 0.0551,-1.00453 0.34636,-0.20219 1.12211,-1.27485 1.72389,-2.38369 1.73675,-3.20015 2.08339,-3.7369 2.28443,-3.5373 0.10385,0.10311 0.23399,-0.43791 0.28918,-1.20226 0.0552,-0.76435 0.3197,-1.654 0.58776,-1.977 1.72765,-2.08169 2.41701,-14.89833 1.10039,-20.45849 -0.38916,-1.64344 -0.73652,-3.3349 -0.77191,-3.7588 -0.0354,-0.4239 -0.25948,-0.65014 -0.49797,-0.50275 -0.24715,0.15275 -0.32207,-0.15855 -0.17421,-0.72394 0.14266,-0.54555 0.0885,-0.88629 -0.12039,-0.7572 -0.20888,0.12909 -0.61936,-0.49122 -0.91219,-1.37847 -0.29281,-0.88726 -0.74734,-1.61319 -1.01006,-1.61319 -0.26272,0 -0.3694,-0.41402 -0.23707,-0.92004 0.13232,-0.50602 0.053,-0.80411 -0.17624,-0.66242 -0.22926,0.14169 -0.41683,0.0466 -0.41683,-0.21132 0,-0.2579 -0.43573,-0.87486 -0.96829,-1.37103 -0.596,-0.55525 -0.83279,-1.13657 -0.61586,-1.51194 0.19385,-0.3354 0.21197,-0.48528 0.0403,-0.33304 -0.35702,0.31654 -4.911212,-4.00412 -6.045922,-5.73591 -0.43989,-0.67135 -1.02715,-1.04636 -1.40909,-0.8998 -0.36018,0.13822 -0.65487,0.0555 -0.65487,-0.1838 0,-0.2393 -0.52882,-0.67605 -1.17518,-0.97054 -0.64634,-0.2945 -1.04786,-0.74144 -0.89227,-0.9932 0.1556,-0.25176 0.0638,-0.45775 -0.20393,-0.45775 -0.34026,0 -0.48683,-18.88503 -0.48683,-62.72699 0,-65.54359 0.0297,-64.44797 -1.86895,-68.97783 -0.31792,-0.75851 -0.52739,-1.58598 -0.46549,-1.83881 0.0619,-0.25284 -0.0224,-0.32472 -0.18744,-0.15973 -0.16499,0.165 -1.13947,-0.61075 -2.16552,-1.72388 -1.02604,-1.11313 -2.14949,-2.02387 -2.49654,-2.02387 -0.34705,0 -0.63101,-0.19885 -0.63101,-0.44189 0,-0.96409 -4.80406,-1.85662 -9.99332,-1.85662 -5.47445,0 -9.01161,0.58913 -10.31955,1.71878 -0.42653,0.36839 -1.00054,0.53072 -1.27557,0.36074 -0.27504,-0.16998 -0.44322,-0.12322 -0.37375,0.1039 0.0695,0.22713 -0.73572,1.24415 -1.78933,2.26005 -1.4339,1.38259 -2.21425,2.71221 -3.103,5.28714 l -1.18734,3.44004 v 63.31662 c 0,46.94129 -0.13431,63.2336 -0.51934,62.99564 -0.31554,-0.19501 -0.43497,-0.0704 -0.30433,0.31765 0.22488,0.66793 -2.27165,2.53074 -3.0838,2.301 -0.25284,-0.0715 -0.31157,0.0181 -0.13051,0.19915 0.37552,0.37552 -1.94656,2.34211 -2.53804,2.14948 -0.21332,-0.0695 -0.30742,0.034 -0.20911,0.22985 0.25205,0.50221 -1.81771,2.39549 -2.22287,2.03334 -0.1834,-0.16394 -0.19487,-0.056 -0.0255,0.23979 0.17489,0.30546 -0.3395,1.07052 -1.19048,1.7706 -0.82414,0.67801 -1.20452,1.07423 -0.84527,0.8805 0.40982,-0.22101 0.32419,0.0865 -0.22985,0.82533 -0.48567,0.64766 -1.0358,1.0847 -1.22254,0.9712 -0.18673,-0.1135 -0.23403,0.0685 -0.10511,0.40446 0.12892,0.33595 -0.28719,1.31779 -0.92467,2.18185 -0.63749,0.86407 -1.15907,1.85335 -1.15907,2.1984 0,0.34506 -0.20449,0.50099 -0.45443,0.34652 -0.2611,-0.16137 -0.33736,0.0243 -0.17924,0.43629 0.15135,0.39444 -0.0603,1.42424 -0.47044,2.28845 -1.8658,3.93191 -2.36487,14.3684 -0.96868,20.25714 0.41963,1.76985 0.7917,3.56475 0.82683,3.98865 0.0351,0.4239 0.25899,0.65013 0.49748,0.50274 0.24715,-0.15275 0.32207,0.15855 0.17421,0.72394 -0.14266,0.54556 -0.092,0.88845 0.11266,0.76199 0.20463,-0.12647 0.59933,0.33869 0.87712,1.03369 0.79893,1.99885 2.87589,5.36559 3.55867,5.76858 0.34257,0.20219 0.62285,0.57642 0.62285,0.83161 0,0.2552 -0.23883,0.31639 -0.53073,0.13598 -0.33147,-0.20485 -0.40584,-0.12592 -0.19809,0.21022 0.18296,0.29603 0.4735,0.46927 0.64566,0.38498 0.17215,-0.0843 0.83018,0.35871 1.46227,0.98443 0.63209,0.62572 0.83895,0.99203 0.4597,0.81402 -0.37925,-0.17802 -0.27582,-0.0128 0.22985,0.36716 1.79592,1.34942 2.75012,2.17405 2.18359,1.88708 -0.31605,-0.16009 -0.57463,-0.17964 -0.57463,-0.0434 0,0.1362 0.82747,0.66977 1.83881,1.18573 1.01135,0.51595 1.83881,1.09025 1.83881,1.27623 0,0.18597 0.62177,0.61336 1.38171,0.94974 0.77355,0.34241 1.24814,0.82775 1.07823,1.10265 -0.18049,0.29205 -0.0859,0.35661 0.23328,0.15931 0.29522,-0.18245 1.6201,0.17461 2.94417,0.79348 4.9035,2.29188 5.7433,2.58317 8.64073,2.99709 4.21012,0.60144 8.08998,0.61301 12.23512,0.0365 z m 29.874932,-28.57623 c -0.12752,-0.31604 -0.23187,-0.0575 -0.23187,0.57463 0,0.63209 0.10435,0.89068 0.23187,0.57463 0.12753,-0.31604 0.12753,-0.83321 0,-1.14926 z m -78.135342,-0.6808 c -0.11655,-0.44728 -0.21958,-0.19263 -0.22895,0.56588 -0.009,0.75851 0.086,1.12446 0.21192,0.81323 0.12592,-0.31124 0.13359,-0.93183 0.017,-1.37911 z m 85.030882,-0.6983 c -0.12752,-0.31605 -0.23187,-0.0575 -0.23187,0.57462 0,0.6321 0.10435,0.89068 0.23187,0.57463 0.12753,-0.31604 0.12753,-0.83321 0,-1.14925 z m -78.609152,-1.83881 c -0.12753,-0.31605 -0.23187,-0.0575 -0.23187,0.57462 0,0.63209 0.10434,0.89068 0.23187,0.57463 0.12753,-0.31604 0.12753,-0.83321 0,-1.14925 z m 72.173312,-0.91941 c -0.12752,-0.31605 -0.23187,-0.0575 -0.23187,0.57463 0,0.63209 0.10435,0.89067 0.23187,0.57463 0.12753,-0.31605 0.12753,-0.83321 0,-1.14926 z m -79.040152,-3.66939 c -0.10231,-0.82625 -0.18813,-0.26107 -0.19071,1.25595 -0.003,1.51702 0.0811,2.19304 0.18602,1.50227 0.10489,-0.69077 0.107,-1.93197 0.005,-2.75822 z m 79.060832,-2.76109 c -0.10995,-0.57183 -0.2041,-0.21222 -0.2092,0.79912 -0.005,1.01135 0.0849,1.47921 0.19992,1.03969 0.11506,-0.43951 0.11924,-1.26698 0.009,-1.83881 z m -72.193992,-0.92476 c -0.12753,-0.31605 -0.23187,-0.0575 -0.23187,0.57462 0,0.6321 0.10434,0.89068 0.23187,0.57463 0.12753,-0.31604 0.12753,-0.83321 0,-1.14925 z m 78.623272,-1.60022 c -0.11655,-0.44727 -0.21958,-0.19262 -0.22895,0.56588 -0.009,0.75851 0.086,1.12447 0.21192,0.81323 0.12592,-0.31123 0.13358,-0.93183 0.0171,-1.37911 z m -85.059112,-0.6983 c -0.12753,-0.31604 -0.23187,-0.0575 -0.23187,0.57463 0,0.63209 0.10434,0.89067 0.23187,0.57463 0.12752,-0.31605 0.12752,-0.83321 0,-1.14926 z m 6.90512,-0.89067 c -0.14675,-0.36672 -0.25568,-0.25779 -0.27774,0.27774 -0.02,0.4846 0.0887,0.75611 0.24145,0.60336 0.15275,-0.15276 0.16908,-0.54926 0.0363,-0.8811 z m 60.22103,-151.24219 c -0.14674,-0.36671 -0.25567,-0.25779 -0.27773,0.27774 -0.0199,0.4846 0.0887,0.75612 0.24144,0.60336 0.152762,-0.15276 0.169092,-0.54925 0.0363,-0.8811 z m -49.18818,-0.9194 c -0.14675,-0.36672 -0.25568,-0.25779 -0.27773,0.27774 -0.02,0.4846 0.0887,0.75611 0.24144,0.60336 0.15276,-0.15276 0.16909,-0.54926 0.0363,-0.8811 z m 28.07261,-18.183911 c -1.95948,-0.0862 -5.16591,-0.0862 -7.12539,0 -1.95948,0.0862 -0.35627,0.15667 3.5627,0.15667 3.91896,0 5.52217,-0.0705 3.56269,-0.15667 z M 109.68826,234.30066 c 0.45971,-0.29708 0.49801,-0.44797 0.11493,-0.45266 -0.40004,-0.005 -0.57463,-0.91488 -0.57463,-2.99511 v -2.98807 h 15.42419 15.42418 l -0.0913,3.44777 -0.0913,3.44777 -15.44786,-0.007 c -10.14349,-0.005 -15.21108,-0.16006 -14.7583,-0.45267 z m -0.4597,-18.61796 v -3.44777 h 11.49257 11.49257 l -0.0323,3.5627 c -0.0219,2.41754 -0.1593,3.26717 -0.42739,2.64329 -0.33784,-0.7862 -0.39976,-0.80285 -0.42739,-0.11493 -0.0298,0.74293 -0.87646,0.80448 -11.06517,0.80448 h -11.03287 z m 22.39499,-1.95374 c -0.10532,-0.6953 -0.19151,-0.12641 -0.19151,1.26419 0,1.3906 0.0862,1.95948 0.19151,1.26418 0.10533,-0.6953 0.10533,-1.83307 0,-2.52837 z m -22.39499,-13.42321 v -3.19483 l 15.42464,-0.034 15.42464,-0.034 -0.0943,3.22886 -0.0943,3.22884 h -15.33036 -15.33036 z m 7.44074,-4.04457 c 4.21882,-0.0758 11.25228,-0.0759 15.62989,-3.1e-4 4.37762,0.0756 0.92585,0.13764 -7.67059,0.13781 -8.59644,1.6e-4 -12.17812,-0.0617 -7.9593,-0.1375 z m -7.44074,-12.52782 v -3.67762 h 11.49257 11.49257 v 3.67762 3.67762 h -11.49257 -11.49257 z m 22.40061,-1.72388 c -0.0992,-0.94814 -0.18032,-0.17239 -0.18032,1.72388 0,1.89628 0.0811,2.67202 0.18032,1.72389 0.0992,-0.94814 0.0992,-2.49964 0,-3.44777 z m -22.40061,-13.90601 v -3.67762 h 15.40004 15.40004 v 3.67762 3.67762 H 124.6286 109.22856 Z m 11.12781,-12.75633 11.35767,-0.13132 0.15848,-3.32486 0.15849,-3.32486 0.0913,3.5627 0.0914,3.5627 -11.6075,-0.10652 -11.60749,-0.10652 z M 109.2356,151.6691 c 0.005,-2.17312 0.14058,-2.89636 0.45266,-2.41344 0.29709,0.4597 0.44798,0.49801 0.45267,0.11492 0.005,-0.44238 2.37609,-0.57462 10.30116,-0.57462 11.58653,0 10.8522,-0.2514 10.8522,3.71522 v 2.26091 h -11.03286 -11.03287 l 0.007,-3.10299 z m -0.007,-15.51497 v -3.44777 h 15.40004 15.40004 v 2.98807 c 0,2.77869 -0.0725,2.99127 -1.03433,3.03389 -0.9923,0.0439 -0.98763,0.0608 0.11493,0.41388 0.63209,0.20243 -5.83248,0.38868 -14.36571,0.41388 l -15.51497,0.0458 z m 0,-15.17019 c 0,-2.08023 0.17459,-2.9902 0.57463,-2.9951 0.38308,-0.005 0.34478,-0.15559 -0.11493,-0.45267 -0.45529,-0.29423 3.25384,-0.44802 10.91794,-0.45266 l 11.6075,-0.007 v 3.44777 3.44777 H 120.72117 109.2286 Z m 22.52543,-0.4597 c 0,-1.64344 -0.15515,-2.9885 -0.34477,-2.98904 -0.18963,-4.6e-4 -0.27541,1.34411 -0.19063,2.98807 0.0848,1.64397 0.23993,2.98904 0.34478,2.98904 0.10484,0 0.19062,-1.34464 0.19062,-2.98807 z M 116.6693,107.53855 c 4.21882,-0.0758 11.25228,-0.0759 15.62989,-3e-4 4.37762,0.0756 0.92585,0.13764 -7.67059,0.1378 -8.59644,1.7e-4 -12.17812,-0.0617 -7.9593,-0.1375 z m -7.44074,-3.10391 v -2.52836 h 15.40004 15.40004 v 2.52836 2.52837 H 124.6286 109.22856 Z m 7.44074,-3.33193 c 4.21882,-0.0758 11.25228,-0.0759 15.62989,-3e-4 4.37762,0.0756 0.92585,0.13764 -7.67059,0.1378 -8.59644,1.7e-4 -12.17812,-0.0617 -7.9593,-0.1375 z"
         id="path1962" />
    </g>
    <g
       id="g7243"
       transform="translate(151.54619,-61.836341)">
      <path
         style="fill:#00995d;fill-opacity:1;stroke-width:0.459703"
         d="m 429.99082,307.85912 c -10.32006,-2.97536 -18.38823,-11.42132 -20.18253,-21.12756 -1.83873,-9.94664 0.8357,-19.10337 7.52833,-25.77554 3.40348,-3.39307 3.83393,-3.72317 7.13776,-5.47379 l 2.06867,-1.09614 0.22985,-65.89905 c 0.22108,-63.38546 0.26281,-65.95956 1.09394,-67.48553 1.82993,-3.35976 2.71872,-3.7001 9.66285,-3.7001 h 5.76052 l 1.61378,1.41693 c 0.90529,0.79485 1.8194,2.15716 2.0821,3.10299 0.30777,1.1081 0.46918,24.07744 0.47087,67.00651 l 0.003,65.32043 2.18358,1.09257 c 9.73036,4.86858 15.71602,14.41874 15.73802,25.11006 0.0269,13.08099 -8.33347,24.09449 -20.90967,27.54525 -2.88804,0.79244 -11.68161,0.76996 -14.48064,-0.037 z m 24.93953,-11.7256 c 1.59336,-1.25333 4.82284,-7.94034 5.44752,-11.27969 0.61964,-3.31241 0.2164,-9.21321 -0.79316,-11.6067 -2.74861,-6.51652 -4.5522,-8.84085 -6.86016,-8.84085 -1.60856,0 -2.96651,1.28759 -2.96651,2.81279 0,0.42318 0.77574,2.39409 1.72388,4.37982 1.6957,3.55137 1.72389,3.70062 1.72389,9.12684 0,5.42623 -0.0282,5.57547 -1.72389,9.12684 -0.94814,1.98573 -1.72388,3.87134 -1.72388,4.19026 0,1.08091 1.89397,3.00235 2.95943,3.00235 0.57965,0 1.57544,-0.41025 2.21288,-0.91166 z"
         id="path1966-8-4" />
      <path
         style="fill:#040404;stroke-width:0.459703"
         d="m 430.6139,324.76729 c -0.63209,-0.11341 -2.18359,-0.5017 -3.44777,-0.86286 -1.26418,-0.36116 -3.18394,-0.88278 -4.26612,-1.15916 -1.23857,-0.31631 -1.85099,-0.69121 -1.65286,-1.01178 0.17861,-0.28899 0.1068,-0.38076 -0.16602,-0.21215 -0.97116,0.60021 -7.39962,-2.83667 -6.67017,-3.56611 0.17334,-0.17335 -0.0503,-0.17493 -0.49704,-0.004 -0.48429,0.18584 -1.12823,0.0167 -1.59495,-0.41891 -0.4305,-0.40182 -1.49665,-1.30689 -2.36921,-2.01126 -2.88802,-2.33135 -6.50294,-6.12316 -6.24121,-6.54664 0.14167,-0.22924 0.0154,-0.56649 -0.28064,-0.74944 -0.35676,-0.2205 -0.42557,-0.11497 -0.20409,0.31301 0.18377,0.35511 -0.20533,0.025 -0.86466,-0.73345 -0.65932,-0.75851 -1.54269,-2.10314 -1.96303,-2.98807 -0.42034,-0.88493 -0.95669,-1.74098 -1.19188,-1.90234 -0.23519,-0.16136 -0.26573,-0.55534 -0.0678,-0.87551 0.25072,-0.40567 0.17521,-0.46806 -0.24908,-0.20583 -0.44578,0.2755 -0.52778,0.16501 -0.30615,-0.41255 0.16649,-0.43387 0.13089,-0.68266 -0.0791,-0.55287 -0.67404,0.41658 -2.47557,-3.8069 -2.19821,-5.15347 0.14056,-0.68241 0.13228,-0.94971 -0.0184,-0.59399 -0.55019,1.29887 -2.03239,-3.93597 -2.55912,-9.03826 -0.54071,-5.23781 0.0103,-14.22123 0.94811,-15.45784 0.21477,-0.28319 0.75793,-1.91124 1.20702,-3.61789 0.44909,-1.70665 0.99648,-3.10299 1.21643,-3.10299 0.21994,0 0.52933,-0.51574 0.68754,-1.14608 0.15821,-0.63035 0.47008,-1.03334 0.69305,-0.89553 0.22297,0.1378 0.26918,-0.10443 0.10269,-0.5383 -0.19331,-0.50374 -0.12383,-0.67828 0.19225,-0.48294 0.31487,0.1946 0.40741,-0.0289 0.25436,-0.61414 -0.13233,-0.50584 -0.0235,-0.91986 0.24174,-0.91986 0.26529,0 0.61461,-0.41674 0.77627,-0.92608 0.16166,-0.50935 0.51786,-0.78768 0.79156,-0.61853 0.30657,0.18947 0.36413,0.0915 0.14991,-0.25507 -0.37146,-0.60103 -0.25718,-0.75147 3.50769,-4.61814 1.34434,-1.38069 2.13396,-2.34796 1.75471,-2.1495 -0.37926,0.19847 -0.27583,0.0359 0.22985,-0.36131 0.50567,-0.39719 1.90202,-1.58771 3.10299,-2.6456 l 2.18359,-1.92343 v -62.18395 c 0,-62.38788 0.0822,-65.90189 1.58504,-67.74564 0.30913,-0.37925 0.82699,-1.35924 1.15081,-2.17774 0.32383,-0.81851 0.77163,-1.37518 0.99512,-1.23706 0.22349,0.13813 0.41095,-0.0197 0.41657,-0.35062 0.006,-0.33096 0.43731,-1.11892 0.9593,-1.75101 0.52199,-0.63209 0.81235,-0.83896 0.64524,-0.4597 -0.17639,0.40032 -0.0159,0.33654 0.3827,-0.15204 0.3776,-0.46288 1.06525,-1.15053 1.52813,-1.52813 0.51503,-0.42014 0.57402,-0.57746 0.15203,-0.40545 -0.37925,0.15459 -0.29397,0.0148 0.18952,-0.31069 0.48348,-0.32547 1.27523,-0.96977 1.75943,-1.43179 0.48419,-0.46201 1.18541,-0.72296 1.55825,-0.57989 0.37283,0.14307 0.5618,0.0723 0.41992,-0.15726 -0.14188,-0.22956 0.51969,-0.66789 1.47016,-0.97405 0.95046,-0.30616 2.01872,-0.78828 2.3739,-1.07138 0.87081,-0.69408 18.49472,-0.71157 19.3959,-0.0192 0.35471,0.27251 1.60221,0.84883 2.77223,1.2807 1.17,0.43188 2.49498,1.19154 2.94438,1.68812 0.44941,0.49659 1.00813,0.90289 1.2416,0.90289 0.36664,0 1.85506,1.49181 4.73671,4.74749 0.40893,0.46202 0.62646,1.14508 0.48339,1.51791 -0.16702,0.43525 -0.0695,0.56008 0.27243,0.34875 0.36811,-0.22751 0.42996,-0.0618 0.20029,0.53674 -0.18275,0.47624 -0.18417,0.71778 -0.003,0.53677 0.65103,-0.65103 2.07813,2.47327 1.81436,3.97212 -0.17711,1.00636 -0.13808,1.1701 0.12923,0.54222 0.31605,-0.74233 0.43545,-0.58168 0.68333,0.91941 0.1652,1.00041 0.30264,29.66209 0.30542,63.69262 0.005,61.0405 0.0173,61.88477 0.91363,62.69593 0.49971,0.45224 0.77804,1.03343 0.61852,1.29154 -0.16543,0.26768 -0.0636,0.32934 0.23705,0.14353 0.2899,-0.17917 0.89075,-0.11399 1.33521,0.14485 0.44447,0.25883 0.65987,0.47689 0.47867,0.48458 -0.34926,0.0148 1.87116,2.28657 3.97427,4.06616 0.73785,0.62435 1.1506,1.34287 0.99875,1.7386 -0.16752,0.43654 0.15999,0.83372 0.92838,1.12586 0.77142,0.2933 1.09613,0.68871 0.92716,1.12903 -0.14301,0.37271 -0.0602,0.62842 0.18392,0.56824 0.88853,-0.21898 4.67833,7.31875 4.32282,8.59787 -0.18886,0.6795 -0.14114,0.7706 0.16918,0.32296 0.3114,-0.44922 0.59367,0.0648 1.00972,1.83881 0.31761,1.35428 0.7463,2.67719 0.95265,2.93981 0.20633,0.26261 0.61934,2.74501 0.91777,5.51643 0.63799,5.92468 0.13489,12.01313 -1.40535,17.00705 -1.18543,3.84351 -2.99059,7.65136 -3.42248,7.21946 -0.17145,-0.17145 -0.16221,0.0779 0.0205,0.55416 0.24903,0.64895 0.17974,0.77161 -0.27658,0.48959 -0.42429,-0.26223 -0.49979,-0.19984 -0.24908,0.20583 0.19788,0.32017 0.16734,0.71415 -0.0679,0.87551 -0.23519,0.16136 -0.78856,1.06913 -1.22972,2.01726 -0.44115,0.94814 -0.99925,1.72389 -1.24023,1.72389 -0.24097,0 -0.43813,0.28497 -0.43813,0.63327 0,0.34829 -0.35001,0.91717 -0.7778,1.26418 -0.66243,0.53734 -0.72008,0.53515 -0.38868,-0.0148 0.26612,-0.44155 0.21899,-0.5405 -0.1491,-0.31301 -0.29603,0.18295 -0.4144,0.53301 -0.26305,0.7779 0.38629,0.62503 -5.69631,6.49065 -6.32672,6.10104 -0.3128,-0.19333 -0.38194,-0.10664 -0.17806,0.22325 0.20785,0.3363 -0.17345,0.75236 -1.01298,1.10536 -0.74045,0.31134 -1.42736,0.77282 -1.52645,1.02552 -0.37365,0.95281 -7.64774,4.49433 -8.34545,4.06312 -0.2733,-0.16892 -0.34527,-0.0774 -0.16653,0.21182 0.19822,0.32074 -0.41369,0.69377 -1.65286,1.00762 -1.08218,0.27408 -3.00194,0.83235 -4.26612,1.24061 -2.24394,0.72465 -13.60978,1.27178 -16.31944,0.78558 z m 8.84927,-0.52202 c -1.32738,-0.0929 -3.49948,-0.0929 -4.82687,0 -1.32739,0.0929 -0.24135,0.16884 2.41344,0.16884 2.65478,0 3.74082,-0.076 2.41343,-0.16884 z m -9.43347,-0.39853 c -0.15276,-0.15275 -0.54926,-0.16908 -0.8811,-0.0363 -0.36672,0.14675 -0.25779,0.25568 0.27774,0.27774 0.4846,0.0199 0.75611,-0.0887 0.60336,-0.24145 z m 2.07823,-6.46255 c -0.31604,-0.12752 -0.83321,-0.12752 -1.14925,0 -0.31605,0.12753 -0.0575,0.23187 0.57463,0.23187 0.63209,0 0.89067,-0.10434 0.57462,-0.23187 z m 10.79344,0.0267 c -0.15276,-0.15275 -0.54926,-0.16908 -0.8811,-0.0363 -0.36672,0.14675 -0.25779,0.25568 0.27774,0.27773 0.4846,0.02 0.75611,-0.0887 0.60336,-0.24144 z m -0.025,-0.68193 c 1.97706,-0.27499 4.4227,-0.87094 5.43477,-1.32434 1.01207,-0.4534 2.35729,-0.97691 2.98938,-1.16336 0.63209,-0.18645 1.50357,-0.64992 1.93661,-1.02993 0.43305,-0.38002 1.11611,-0.56478 1.51791,-0.4106 0.40181,0.15419 0.62344,0.10702 0.49252,-0.10481 -0.13092,-0.21184 0.3175,-0.67491 0.99649,-1.02907 1.4937,-0.77909 2.19151,-1.35067 5.2759,-4.32153 1.3125,-1.26418 2.22397,-1.98822 2.02551,-1.60896 -0.19847,0.37925 -0.0519,0.31084 0.32568,-0.15204 0.3776,-0.46287 1.06525,-1.15053 1.52813,-1.52812 0.46287,-0.37759 0.58301,-0.55556 0.26696,-0.39546 -0.78433,0.39729 -0.73265,-0.54467 0.0551,-1.00453 0.34636,-0.20219 1.12211,-1.27485 1.72389,-2.38369 1.73675,-3.20015 2.08339,-3.7369 2.28443,-3.5373 0.10385,0.10311 0.23399,-0.43791 0.28918,-1.20226 0.0552,-0.76435 0.3197,-1.654 0.58776,-1.977 1.72765,-2.08169 2.41701,-14.89833 1.10039,-20.45849 -0.38916,-1.64344 -0.73652,-3.3349 -0.77191,-3.7588 -0.0354,-0.4239 -0.25948,-0.65014 -0.49797,-0.50275 -0.24715,0.15275 -0.32207,-0.15855 -0.17421,-0.72394 0.14266,-0.54555 0.0885,-0.88629 -0.12039,-0.7572 -0.20888,0.12909 -0.61936,-0.49122 -0.91219,-1.37847 -0.29281,-0.88726 -0.74734,-1.61319 -1.01006,-1.61319 -0.26272,0 -0.3694,-0.41402 -0.23707,-0.92004 0.13232,-0.50602 0.053,-0.80411 -0.17624,-0.66242 -0.22926,0.14169 -0.41683,0.0466 -0.41683,-0.21132 0,-0.2579 -0.43573,-0.87486 -0.96829,-1.37103 -0.596,-0.55525 -0.83279,-1.13657 -0.61586,-1.51194 0.19385,-0.3354 0.21197,-0.48528 0.0403,-0.33304 -0.35702,0.31654 -4.91121,-4.00412 -6.04592,-5.73591 -0.43989,-0.67135 -1.02715,-1.04636 -1.40909,-0.8998 -0.36018,0.13822 -0.65487,0.0555 -0.65487,-0.1838 0,-0.2393 -0.52882,-0.67605 -1.17518,-0.97054 -0.64634,-0.2945 -1.04786,-0.74144 -0.89227,-0.9932 0.1556,-0.25176 0.0638,-0.45775 -0.20393,-0.45775 -0.34026,0 -0.48683,-18.88503 -0.48683,-62.72699 0,-65.54359 0.0297,-64.44797 -1.86895,-68.97783 -0.31792,-0.75851 -0.52739,-1.58598 -0.46549,-1.83881 0.0619,-0.25284 -0.0224,-0.32472 -0.18744,-0.15973 -0.16499,0.165 -1.13947,-0.61075 -2.16552,-1.72388 -1.02604,-1.11313 -2.14949,-2.02387 -2.49654,-2.02387 -0.34705,0 -0.63101,-0.19885 -0.63101,-0.44189 0,-0.96409 -4.80406,-1.85662 -9.99332,-1.85662 -5.47445,0 -9.01161,0.58913 -10.31955,1.71878 -0.42653,0.36839 -1.00054,0.53072 -1.27557,0.36074 -0.27504,-0.16998 -0.44322,-0.12322 -0.37375,0.1039 0.0695,0.22713 -0.73572,1.24415 -1.78933,2.26005 -1.4339,1.38259 -2.21425,2.71221 -3.103,5.28714 l -1.18734,3.44004 v 63.31662 c 0,46.94129 -0.13431,63.2336 -0.51934,62.99564 -0.31554,-0.19501 -0.43497,-0.0704 -0.30433,0.31765 0.22488,0.66793 -2.27165,2.53074 -3.0838,2.301 -0.25284,-0.0715 -0.31157,0.0181 -0.13051,0.19915 0.37552,0.37552 -1.94656,2.34211 -2.53804,2.14948 -0.21332,-0.0695 -0.30742,0.034 -0.20911,0.22985 0.25205,0.50221 -1.81771,2.39549 -2.22287,2.03334 -0.1834,-0.16394 -0.19487,-0.056 -0.0255,0.23979 0.17489,0.30546 -0.3395,1.07052 -1.19048,1.7706 -0.82414,0.67801 -1.20452,1.07423 -0.84527,0.8805 0.40982,-0.22101 0.32419,0.0865 -0.22985,0.82533 -0.48567,0.64766 -1.0358,1.0847 -1.22254,0.9712 -0.18673,-0.1135 -0.23403,0.0685 -0.10511,0.40446 0.12892,0.33595 -0.28719,1.31779 -0.92467,2.18185 -0.63749,0.86407 -1.15907,1.85335 -1.15907,2.1984 0,0.34506 -0.20449,0.50099 -0.45443,0.34652 -0.2611,-0.16137 -0.33736,0.0243 -0.17924,0.43629 0.15135,0.39444 -0.0603,1.42424 -0.47044,2.28845 -1.8658,3.93191 -2.36487,14.3684 -0.96868,20.25714 0.41963,1.76985 0.7917,3.56475 0.82683,3.98865 0.0351,0.4239 0.25899,0.65013 0.49748,0.50274 0.24715,-0.15275 0.32207,0.15855 0.17421,0.72394 -0.14266,0.54556 -0.092,0.88845 0.11266,0.76199 0.20463,-0.12647 0.59933,0.33869 0.87712,1.03369 0.79893,1.99885 2.87589,5.36559 3.55867,5.76858 0.34257,0.20219 0.62285,0.57642 0.62285,0.83161 0,0.2552 -0.23883,0.31639 -0.53073,0.13598 -0.33147,-0.20485 -0.40584,-0.12592 -0.19809,0.21022 0.18296,0.29603 0.4735,0.46927 0.64566,0.38498 0.17215,-0.0843 0.83018,0.35871 1.46227,0.98443 0.63209,0.62572 0.83895,0.99203 0.4597,0.81402 -0.37925,-0.17802 -0.27582,-0.0128 0.22985,0.36716 1.79592,1.34942 2.75012,2.17405 2.18359,1.88708 -0.31605,-0.16009 -0.57463,-0.17964 -0.57463,-0.0434 0,0.1362 0.82747,0.66977 1.83881,1.18573 1.01135,0.51595 1.83881,1.09025 1.83881,1.27623 0,0.18597 0.62177,0.61336 1.38171,0.94974 0.77355,0.34241 1.24814,0.82775 1.07823,1.10265 -0.18049,0.29205 -0.0859,0.35661 0.23328,0.15931 0.29522,-0.18245 1.6201,0.17461 2.94417,0.79348 4.9035,2.29188 5.7433,2.58317 8.64073,2.99709 4.21012,0.60144 8.08998,0.61301 12.23512,0.0365 z m 29.87493,-28.57623 c -0.12752,-0.31604 -0.23187,-0.0575 -0.23187,0.57463 0,0.63209 0.10435,0.89068 0.23187,0.57463 0.12753,-0.31604 0.12753,-0.83321 0,-1.14926 z m -78.13534,-0.6808 c -0.11655,-0.44728 -0.21958,-0.19263 -0.22895,0.56588 -0.009,0.75851 0.086,1.12446 0.21192,0.81323 0.12592,-0.31124 0.13359,-0.93183 0.017,-1.37911 z m 85.03088,-0.6983 c -0.12752,-0.31605 -0.23187,-0.0575 -0.23187,0.57462 0,0.6321 0.10435,0.89068 0.23187,0.57463 0.12753,-0.31604 0.12753,-0.83321 0,-1.14925 z m -78.60915,-1.83881 c -0.12753,-0.31605 -0.23187,-0.0575 -0.23187,0.57462 0,0.63209 0.10434,0.89068 0.23187,0.57463 0.12753,-0.31604 0.12753,-0.83321 0,-1.14925 z m 72.17331,-0.91941 c -0.12752,-0.31605 -0.23187,-0.0575 -0.23187,0.57463 0,0.63209 0.10435,0.89067 0.23187,0.57463 0.12753,-0.31605 0.12753,-0.83321 0,-1.14926 z m -79.04015,-3.66939 c -0.10231,-0.82625 -0.18813,-0.26107 -0.19071,1.25595 -0.003,1.51702 0.0811,2.19304 0.18602,1.50227 0.10489,-0.69077 0.107,-1.93197 0.005,-2.75822 z m 79.06083,-2.76109 c -0.10995,-0.57183 -0.2041,-0.21222 -0.2092,0.79912 -0.005,1.01135 0.0849,1.47921 0.19992,1.03969 0.11506,-0.43951 0.11924,-1.26698 0.009,-1.83881 z m -72.19399,-0.92476 c -0.12753,-0.31605 -0.23187,-0.0575 -0.23187,0.57462 0,0.6321 0.10434,0.89068 0.23187,0.57463 0.12753,-0.31604 0.12753,-0.83321 0,-1.14925 z m 78.62327,-1.60022 c -0.11655,-0.44727 -0.21958,-0.19262 -0.22895,0.56588 -0.009,0.75851 0.086,1.12447 0.21192,0.81323 0.12592,-0.31123 0.13358,-0.93183 0.0171,-1.37911 z m -85.05911,-0.6983 c -0.12753,-0.31604 -0.23187,-0.0575 -0.23187,0.57463 0,0.63209 0.10434,0.89067 0.23187,0.57463 0.12752,-0.31605 0.12752,-0.83321 0,-1.14926 z m 6.90512,-0.89067 c -0.14675,-0.36672 -0.25568,-0.25779 -0.27774,0.27774 -0.02,0.4846 0.0887,0.75611 0.24145,0.60336 0.15275,-0.15276 0.16908,-0.54926 0.0363,-0.8811 z M 461.728,122.22879 c -0.14674,-0.36671 -0.25567,-0.25779 -0.27773,0.27774 -0.0199,0.4846 0.0887,0.75612 0.24144,0.60336 0.15276,-0.15276 0.16909,-0.54925 0.0363,-0.8811 z m -49.18818,-0.9194 c -0.14675,-0.36672 -0.25568,-0.25779 -0.27773,0.27774 -0.02,0.4846 0.0887,0.75611 0.24144,0.60336 0.15276,-0.15276 0.16909,-0.54926 0.0363,-0.8811 z m 28.07261,-18.18391 c -1.95948,-0.0862 -5.16591,-0.0862 -7.12539,0 -1.95948,0.0862 -0.35627,0.15667 3.5627,0.15667 3.91896,0 5.52217,-0.0705 3.56269,-0.15667 z m 30.915,141.47043 c 0.45971,-0.29708 0.49801,-0.44797 0.11493,-0.45266 -0.40004,-0.005 -0.57463,-0.91488 -0.57463,-2.99511 v -2.98807 h 15.42419 15.42418 l -0.0913,3.44777 -0.0913,3.44777 -15.44786,-0.007 c -10.14349,-0.005 -15.21108,-0.16006 -14.7583,-0.45267 z m -0.4597,-18.61796 v -3.44777 h 11.49257 11.49257 l -0.0323,3.5627 c -0.0219,2.41754 -0.1593,3.26717 -0.42739,2.64329 -0.33784,-0.7862 -0.39976,-0.80285 -0.42739,-0.11493 -0.0298,0.74293 -0.87646,0.80448 -11.06517,0.80448 h -11.03287 z m 22.39499,-1.95374 c -0.10532,-0.6953 -0.19151,-0.12641 -0.19151,1.26419 0,1.3906 0.0862,1.95948 0.19151,1.26418 0.10533,-0.6953 0.10533,-1.83307 0,-2.52837 z M 471.06773,210.601 v -3.19483 l 15.42464,-0.034 15.42464,-0.034 -0.0943,3.22886 -0.0943,3.22884 h -15.33036 -15.33036 z m 7.44074,-4.04457 c 4.21882,-0.0758 11.25228,-0.0759 15.62989,-3.1e-4 4.37762,0.0756 0.92585,0.13764 -7.67059,0.13781 -8.59644,1.6e-4 -12.17812,-0.0617 -7.9593,-0.1375 z m -7.44074,-12.52782 v -3.67762 h 11.49257 11.49257 v 3.67762 3.67762 H 482.5603 471.06773 Z m 22.40061,-1.72388 c -0.0992,-0.94814 -0.18032,-0.17239 -0.18032,1.72388 0,1.89628 0.0811,2.67202 0.18032,1.72389 0.0992,-0.94814 0.0992,-2.49964 0,-3.44777 z m -22.40061,-13.90601 v -3.67762 h 15.40004 15.40004 v 3.67762 3.67762 h -15.40004 -15.40004 z m 11.12781,-12.75633 11.35767,-0.13132 0.15848,-3.32486 0.15849,-3.32486 0.0913,3.5627 0.0914,3.5627 -11.6075,-0.10652 -11.60749,-0.10652 z m -11.12077,-3.67804 c 0.005,-2.17312 0.14058,-2.89636 0.45266,-2.41344 0.29709,0.4597 0.44798,0.49801 0.45267,0.11492 0.005,-0.44238 2.37609,-0.57462 10.30116,-0.57462 11.58653,0 10.8522,-0.2514 10.8522,3.71522 v 2.26091 H 482.1006 471.06773 l 0.007,-3.10299 z m -0.007,-15.51497 v -3.44777 h 15.40004 15.40004 v 2.98807 c 0,2.77869 -0.0725,2.99127 -1.03433,3.03389 -0.9923,0.0439 -0.98763,0.0608 0.11493,0.41388 0.63209,0.20243 -5.83248,0.38868 -14.36571,0.41388 l -15.51497,0.0458 z m 0,-15.17019 c 0,-2.08023 0.17459,-2.9902 0.57463,-2.9951 0.38308,-0.005 0.34478,-0.15559 -0.11493,-0.45267 -0.45529,-0.29423 3.25384,-0.44802 10.91794,-0.45266 l 11.6075,-0.007 v 3.44777 3.44777 h -11.49257 -11.49257 z m 22.52543,-0.4597 c 0,-1.64344 -0.15515,-2.9885 -0.34477,-2.98904 -0.18963,-4.6e-4 -0.27541,1.34411 -0.19063,2.98807 0.0848,1.64397 0.23993,2.98904 0.34478,2.98904 0.10484,0 0.19062,-1.34464 0.19062,-2.98807 z M 478.50847,117.8338 c 4.21882,-0.0758 11.25228,-0.0759 15.62989,-3e-4 4.37762,0.0756 0.92585,0.13764 -7.67059,0.1378 -8.59644,1.7e-4 -12.17812,-0.0617 -7.9593,-0.1375 z m -7.44074,-3.10391 v -2.52836 h 15.40004 15.40004 v 2.52836 2.52837 h -15.40004 -15.40004 z m 7.44074,-3.33193 c 4.21882,-0.0758 11.25228,-0.0759 15.62989,-3e-4 4.37762,0.0756 0.92585,0.13764 -7.67059,0.1378 -8.59644,1.7e-4 -12.17812,-0.0617 -7.9593,-0.1375 z"
         id="path1962-2-6" />
      <rect
         style="fill:#ffffff;stroke:none;stroke-width:0.507885"
         id="rect2315-5"
         width="34.747986"
         height="83.58606"
         x="419.28711"
         y="139.7547"
         ry="25.286459" />
      <rect
         style="fill:#ffffff;stroke:none;stroke-width:0.651249"
         id="rect2315-7"
         width="34.747986"
         height="137.43497"
         x="419.65051"
         y="113.29813"
         ry="41.576832" />
      <rect
         style="fill:#00995d;fill-opacity:1;stroke:none;stroke-width:0.325504"
         id="rect2315-79"
         width="20.295048"
         height="52.702015"
         x="427.16492"
         y="239.53214"
         ry="3.7170973" />
    </g>
    <g
       id="g7236"
       transform="translate(151.54619,-59.528532)">
      <path
         style="fill:#ffcb08;fill-opacity:1;stroke-width:0.459703"
         d="m 282.29098,306.60963 c -10.32006,-2.97536 -18.38823,-11.42132 -20.18253,-21.12756 -1.83873,-9.94664 0.8357,-19.10337 7.52833,-25.77554 3.40348,-3.39307 3.83393,-3.72317 7.13776,-5.47379 l 2.06867,-1.09614 0.22985,-65.89905 c 0.22108,-63.38546 0.26281,-65.95956 1.09394,-67.48553 1.82993,-3.35976 2.71872,-3.7001 9.66285,-3.7001 h 5.76052 l 1.61378,1.41693 c 0.90529,0.79485 1.8194,2.15716 2.0821,3.10299 0.30777,1.1081 0.46918,24.07744 0.47087,67.00651 l 0.003,65.32043 2.18358,1.09257 c 9.73036,4.86858 15.71602,14.41874 15.73802,25.11006 0.0269,13.08099 -8.33347,24.09449 -20.90967,27.54525 -2.88804,0.79244 -11.68161,0.76996 -14.48064,-0.037 z m 24.93953,-11.7256 c 1.59336,-1.25333 4.82284,-7.94034 5.44752,-11.27969 0.61964,-3.31241 0.2164,-9.21321 -0.79316,-11.6067 -2.74861,-6.51652 -4.5522,-8.84085 -6.86016,-8.84085 -1.60856,0 -2.96651,1.28759 -2.96651,2.81279 0,0.42318 0.77574,2.39409 1.72388,4.37982 1.6957,3.55137 1.72389,3.70062 1.72389,9.12684 0,5.42623 -0.0282,5.57547 -1.72389,9.12684 -0.94814,1.98573 -1.72388,3.87134 -1.72388,4.19026 0,1.08091 1.89397,3.00235 2.95943,3.00235 0.57965,0 1.57544,-0.41025 2.21288,-0.91166 z"
         id="path1966-8" />
      <path
         style="fill:#040404;stroke-width:0.459703"
         d="m 282.91405,322.45948 c -0.63209,-0.11341 -2.18359,-0.5017 -3.44777,-0.86286 -1.26418,-0.36116 -3.18394,-0.88278 -4.26612,-1.15916 -1.23857,-0.31631 -1.85099,-0.69121 -1.65286,-1.01178 0.17861,-0.28899 0.1068,-0.38076 -0.16602,-0.21215 -0.97116,0.60021 -7.39962,-2.83667 -6.67017,-3.56611 0.17334,-0.17335 -0.0503,-0.17493 -0.49704,-0.004 -0.48429,0.18584 -1.12823,0.0167 -1.59495,-0.41891 -0.4305,-0.40182 -1.49665,-1.30689 -2.36921,-2.01126 -2.88802,-2.33135 -6.50294,-6.12316 -6.24121,-6.54664 0.14167,-0.22924 0.0154,-0.56649 -0.28064,-0.74944 -0.35676,-0.2205 -0.42557,-0.11497 -0.20409,0.31301 0.18377,0.35511 -0.20533,0.025 -0.86466,-0.73345 -0.65932,-0.75851 -1.54269,-2.10314 -1.96303,-2.98807 -0.42034,-0.88493 -0.95669,-1.74098 -1.19188,-1.90234 -0.23519,-0.16136 -0.26573,-0.55534 -0.0678,-0.87551 0.25072,-0.40567 0.17521,-0.46806 -0.24908,-0.20583 -0.44578,0.2755 -0.52778,0.16501 -0.30615,-0.41255 0.16649,-0.43387 0.13089,-0.68266 -0.0791,-0.55287 -0.67404,0.41658 -2.47557,-3.8069 -2.19821,-5.15347 0.14056,-0.68241 0.13228,-0.94971 -0.0184,-0.59399 -0.55019,1.29887 -2.03239,-3.93597 -2.55912,-9.03826 -0.54071,-5.23781 0.0103,-14.22123 0.94811,-15.45784 0.21477,-0.28319 0.75793,-1.91124 1.20702,-3.61789 0.44909,-1.70665 0.99648,-3.10299 1.21643,-3.10299 0.21994,0 0.52933,-0.51574 0.68754,-1.14608 0.15821,-0.63035 0.47008,-1.03334 0.69305,-0.89553 0.22297,0.1378 0.26918,-0.10443 0.10269,-0.5383 -0.19331,-0.50374 -0.12383,-0.67828 0.19225,-0.48294 0.31487,0.1946 0.40741,-0.0289 0.25436,-0.61414 -0.13233,-0.50584 -0.0235,-0.91986 0.24174,-0.91986 0.26529,0 0.61461,-0.41674 0.77627,-0.92608 0.16166,-0.50935 0.51786,-0.78768 0.79156,-0.61853 0.30657,0.18947 0.36413,0.0915 0.14991,-0.25507 -0.37146,-0.60103 -0.25718,-0.75147 3.50769,-4.61814 1.34434,-1.38069 2.13396,-2.34796 1.75471,-2.1495 -0.37926,0.19847 -0.27583,0.0359 0.22985,-0.36131 0.50567,-0.39719 1.90202,-1.58771 3.10299,-2.6456 l 2.18359,-1.92343 v -62.18395 c 0,-62.38788 0.0822,-65.90189 1.58504,-67.74564 0.30913,-0.37925 0.82699,-1.35924 1.15081,-2.17774 0.32383,-0.81851 0.77163,-1.37518 0.99512,-1.23706 0.22349,0.13813 0.41095,-0.0197 0.41657,-0.35062 0.006,-0.33096 0.43731,-1.11892 0.9593,-1.75101 0.52199,-0.63209 0.81235,-0.83896 0.64524,-0.4597 -0.17639,0.40032 -0.0159,0.33654 0.3827,-0.15204 0.3776,-0.46288 1.06525,-1.15053 1.52813,-1.52813 0.51503,-0.42014 0.57402,-0.57746 0.15203,-0.40545 -0.37925,0.15459 -0.29397,0.0148 0.18952,-0.31069 0.48348,-0.32547 1.27523,-0.96977 1.75943,-1.43179 0.48419,-0.46201 1.18541,-0.72296 1.55825,-0.57989 0.37283,0.14307 0.5618,0.0723 0.41992,-0.15726 -0.14188,-0.22956 0.51969,-0.66789 1.47016,-0.97405 0.95046,-0.30616 2.01872,-0.78828 2.3739,-1.07138 0.87081,-0.69408 18.49472,-0.71157 19.3959,-0.0192 0.35471,0.27251 1.60221,0.84883 2.77223,1.2807 1.17,0.43188 2.49498,1.19154 2.94438,1.68812 0.44941,0.49659 1.00813,0.90289 1.2416,0.90289 0.36664,0 1.85506,1.49181 4.73671,4.74749 0.40893,0.46202 0.62646,1.14508 0.48339,1.51791 -0.16702,0.43525 -0.0695,0.56008 0.27243,0.34875 0.36811,-0.22751 0.42996,-0.0618 0.20029,0.53674 -0.18275,0.47624 -0.18417,0.71778 -0.003,0.53677 0.65103,-0.65103 2.07813,2.47327 1.81436,3.97212 -0.17711,1.00636 -0.13808,1.1701 0.12923,0.54222 0.31605,-0.74233 0.43545,-0.58168 0.68333,0.91941 0.1652,1.00041 0.30264,29.66209 0.30542,63.69262 0.005,61.0405 0.0173,61.88477 0.91363,62.69593 0.49971,0.45224 0.77804,1.03343 0.61852,1.29154 -0.16543,0.26768 -0.0636,0.32934 0.23705,0.14353 0.2899,-0.17917 0.89075,-0.11399 1.33521,0.14485 0.44447,0.25883 0.65987,0.47689 0.47867,0.48458 -0.34926,0.0148 1.87116,2.28657 3.97427,4.06616 0.73785,0.62435 1.1506,1.34287 0.99875,1.7386 -0.16752,0.43654 0.15999,0.83372 0.92838,1.12586 0.77142,0.2933 1.09613,0.68871 0.92716,1.12903 -0.14301,0.37271 -0.0602,0.62842 0.18392,0.56824 0.88853,-0.21898 4.67833,7.31875 4.32282,8.59787 -0.18886,0.6795 -0.14114,0.7706 0.16918,0.32296 0.3114,-0.44922 0.59367,0.0648 1.00972,1.83881 0.31761,1.35428 0.7463,2.67719 0.95265,2.93981 0.20633,0.26261 0.61934,2.74501 0.91777,5.51643 0.63799,5.92468 0.13489,12.01313 -1.40535,17.00705 -1.18543,3.84351 -2.99059,7.65136 -3.42248,7.21946 -0.17145,-0.17145 -0.16221,0.0779 0.0205,0.55416 0.24903,0.64895 0.17974,0.77161 -0.27658,0.48959 -0.42429,-0.26223 -0.49979,-0.19984 -0.24908,0.20583 0.19788,0.32017 0.16734,0.71415 -0.0679,0.87551 -0.23519,0.16136 -0.78856,1.06913 -1.22972,2.01726 -0.44115,0.94814 -0.99925,1.72389 -1.24023,1.72389 -0.24097,0 -0.43813,0.28497 -0.43813,0.63327 0,0.34829 -0.35001,0.91717 -0.7778,1.26418 -0.66243,0.53734 -0.72008,0.53515 -0.38868,-0.0148 0.26612,-0.44155 0.21899,-0.5405 -0.1491,-0.31301 -0.29603,0.18295 -0.4144,0.53301 -0.26305,0.7779 0.38629,0.62503 -5.69631,6.49065 -6.32672,6.10104 -0.3128,-0.19333 -0.38194,-0.10664 -0.17806,0.22325 0.20785,0.3363 -0.17345,0.75236 -1.01298,1.10536 -0.74045,0.31134 -1.42736,0.77282 -1.52645,1.02552 -0.37365,0.95281 -7.64774,4.49433 -8.34545,4.06312 -0.2733,-0.16892 -0.34527,-0.0774 -0.16653,0.21182 0.19822,0.32074 -0.41369,0.69377 -1.65286,1.00762 -1.08218,0.27408 -3.00194,0.83235 -4.26612,1.24061 -2.24394,0.72465 -13.60978,1.27178 -16.31944,0.78558 z m 8.84927,-0.52202 c -1.32738,-0.0929 -3.49948,-0.0929 -4.82687,0 -1.32739,0.0929 -0.24135,0.16884 2.41344,0.16884 2.65478,0 3.74082,-0.076 2.41343,-0.16884 z m -9.43347,-0.39853 c -0.15276,-0.15275 -0.54926,-0.16908 -0.8811,-0.0363 -0.36672,0.14675 -0.25779,0.25568 0.27774,0.27774 0.4846,0.0199 0.75611,-0.0887 0.60336,-0.24145 z m 2.07823,-6.46255 c -0.31604,-0.12752 -0.83321,-0.12752 -1.14925,0 -0.31605,0.12753 -0.0575,0.23187 0.57463,0.23187 0.63209,0 0.89067,-0.10434 0.57462,-0.23187 z m 10.79344,0.0267 c -0.15276,-0.15275 -0.54926,-0.16908 -0.8811,-0.0363 -0.36672,0.14675 -0.25779,0.25568 0.27774,0.27773 0.4846,0.02 0.75611,-0.0887 0.60336,-0.24144 z m -0.025,-0.68193 c 1.97706,-0.27499 4.4227,-0.87094 5.43477,-1.32434 1.01207,-0.4534 2.35729,-0.97691 2.98938,-1.16336 0.63209,-0.18645 1.50357,-0.64992 1.93661,-1.02993 0.43305,-0.38002 1.11611,-0.56478 1.51791,-0.4106 0.40181,0.15419 0.62344,0.10702 0.49252,-0.10481 -0.13092,-0.21184 0.3175,-0.67491 0.99649,-1.02907 1.4937,-0.77909 2.19151,-1.35067 5.2759,-4.32153 1.3125,-1.26418 2.22397,-1.98822 2.02551,-1.60896 -0.19847,0.37925 -0.0519,0.31084 0.32568,-0.15204 0.3776,-0.46287 1.06525,-1.15053 1.52813,-1.52812 0.46287,-0.37759 0.58301,-0.55556 0.26696,-0.39546 -0.78433,0.39729 -0.73265,-0.54467 0.0551,-1.00453 0.34636,-0.20219 1.12211,-1.27485 1.72389,-2.38369 1.73675,-3.20015 2.08339,-3.7369 2.28443,-3.5373 0.10385,0.10311 0.23399,-0.43791 0.28918,-1.20226 0.0552,-0.76435 0.3197,-1.654 0.58776,-1.977 1.72765,-2.08169 2.41701,-14.89833 1.10039,-20.45849 -0.38916,-1.64344 -0.73652,-3.3349 -0.77191,-3.7588 -0.0354,-0.4239 -0.25948,-0.65014 -0.49797,-0.50275 -0.24715,0.15275 -0.32207,-0.15855 -0.17421,-0.72394 0.14266,-0.54555 0.0885,-0.88629 -0.12039,-0.7572 -0.20888,0.12909 -0.61936,-0.49122 -0.91219,-1.37847 -0.29281,-0.88726 -0.74734,-1.61319 -1.01006,-1.61319 -0.26272,0 -0.3694,-0.41402 -0.23707,-0.92004 0.13232,-0.50602 0.053,-0.80411 -0.17624,-0.66242 -0.22926,0.14169 -0.41683,0.0466 -0.41683,-0.21132 0,-0.2579 -0.43573,-0.87486 -0.96829,-1.37103 -0.596,-0.55525 -0.83279,-1.13657 -0.61586,-1.51194 0.19385,-0.3354 0.21197,-0.48528 0.0403,-0.33304 -0.35702,0.31654 -4.91121,-4.00412 -6.04592,-5.73591 -0.43989,-0.67135 -1.02715,-1.04636 -1.40909,-0.8998 -0.36018,0.13822 -0.65487,0.0555 -0.65487,-0.1838 0,-0.2393 -0.52882,-0.67605 -1.17518,-0.97054 -0.64634,-0.2945 -1.04786,-0.74144 -0.89227,-0.9932 0.1556,-0.25176 0.0638,-0.45775 -0.20393,-0.45775 -0.34026,0 -0.48683,-18.88503 -0.48683,-62.72699 0,-65.54359 0.0297,-64.44797 -1.86895,-68.97783 -0.31792,-0.75851 -0.52739,-1.58598 -0.46549,-1.83881 0.0619,-0.25284 -0.0224,-0.32472 -0.18744,-0.15973 -0.16499,0.165 -1.13947,-0.61075 -2.16552,-1.72388 -1.02604,-1.11313 -2.14949,-2.02387 -2.49654,-2.02387 -0.34705,0 -0.63101,-0.19885 -0.63101,-0.44189 0,-0.96409 -4.80406,-1.85662 -9.99332,-1.85662 -5.47445,0 -9.01161,0.58913 -10.31955,1.71878 -0.42653,0.36839 -1.00054,0.53072 -1.27557,0.36074 -0.27504,-0.16998 -0.44322,-0.12322 -0.37375,0.1039 0.0695,0.22713 -0.73572,1.24415 -1.78933,2.26005 -1.4339,1.38259 -2.21425,2.71221 -3.103,5.28714 l -1.18734,3.44004 v 63.31662 c 0,46.94129 -0.13431,63.2336 -0.51934,62.99564 -0.31554,-0.19501 -0.43497,-0.0704 -0.30433,0.31765 0.22488,0.66793 -2.27165,2.53074 -3.0838,2.301 -0.25284,-0.0715 -0.31157,0.0181 -0.13051,0.19915 0.37552,0.37552 -1.94656,2.34211 -2.53804,2.14948 -0.21332,-0.0695 -0.30742,0.034 -0.20911,0.22985 0.25205,0.50221 -1.81771,2.39549 -2.22287,2.03334 -0.1834,-0.16394 -0.19487,-0.056 -0.0255,0.23979 0.17489,0.30546 -0.3395,1.07052 -1.19048,1.7706 -0.82414,0.67801 -1.20452,1.07423 -0.84527,0.8805 0.40982,-0.22101 0.32419,0.0865 -0.22985,0.82533 -0.48567,0.64766 -1.0358,1.0847 -1.22254,0.9712 -0.18673,-0.1135 -0.23403,0.0685 -0.10511,0.40446 0.12892,0.33595 -0.28719,1.31779 -0.92467,2.18185 -0.63749,0.86407 -1.15907,1.85335 -1.15907,2.1984 0,0.34506 -0.20449,0.50099 -0.45443,0.34652 -0.2611,-0.16137 -0.33736,0.0243 -0.17924,0.43629 0.15135,0.39444 -0.0603,1.42424 -0.47044,2.28845 -1.8658,3.93191 -2.36487,14.3684 -0.96868,20.25714 0.41963,1.76985 0.7917,3.56475 0.82683,3.98865 0.0351,0.4239 0.25899,0.65013 0.49748,0.50274 0.24715,-0.15275 0.32207,0.15855 0.17421,0.72394 -0.14266,0.54556 -0.092,0.88845 0.11266,0.76199 0.20463,-0.12647 0.59933,0.33869 0.87712,1.03369 0.79893,1.99885 2.87589,5.36559 3.55867,5.76858 0.34257,0.20219 0.62285,0.57642 0.62285,0.83161 0,0.2552 -0.23883,0.31639 -0.53073,0.13598 -0.33147,-0.20485 -0.40584,-0.12592 -0.19809,0.21022 0.18296,0.29603 0.4735,0.46927 0.64566,0.38498 0.17215,-0.0843 0.83018,0.35871 1.46227,0.98443 0.63209,0.62572 0.83895,0.99203 0.4597,0.81402 -0.37925,-0.17802 -0.27582,-0.0128 0.22985,0.36716 1.79592,1.34942 2.75012,2.17405 2.18359,1.88708 -0.31605,-0.16009 -0.57463,-0.17964 -0.57463,-0.0434 0,0.1362 0.82747,0.66977 1.83881,1.18573 1.01135,0.51595 1.83881,1.09025 1.83881,1.27623 0,0.18597 0.62177,0.61336 1.38171,0.94974 0.77355,0.34241 1.24814,0.82775 1.07823,1.10265 -0.18049,0.29205 -0.0859,0.35661 0.23328,0.15931 0.29522,-0.18245 1.6201,0.17461 2.94417,0.79348 4.9035,2.29188 5.7433,2.58317 8.64073,2.99709 4.21012,0.60144 8.08998,0.61301 12.23512,0.0365 z m 29.87493,-28.57623 c -0.12752,-0.31604 -0.23187,-0.0575 -0.23187,0.57463 0,0.63209 0.10435,0.89068 0.23187,0.57463 0.12753,-0.31604 0.12753,-0.83321 0,-1.14926 z m -78.13534,-0.6808 c -0.11655,-0.44728 -0.21958,-0.19263 -0.22895,0.56588 -0.009,0.75851 0.086,1.12446 0.21192,0.81323 0.12592,-0.31124 0.13359,-0.93183 0.017,-1.37911 z m 85.03088,-0.6983 c -0.12752,-0.31605 -0.23187,-0.0575 -0.23187,0.57462 0,0.6321 0.10435,0.89068 0.23187,0.57463 0.12753,-0.31604 0.12753,-0.83321 0,-1.14925 z m -78.60915,-1.83881 c -0.12753,-0.31605 -0.23187,-0.0575 -0.23187,0.57462 0,0.63209 0.10434,0.89068 0.23187,0.57463 0.12753,-0.31604 0.12753,-0.83321 0,-1.14925 z m 72.17331,-0.91941 c -0.12752,-0.31605 -0.23187,-0.0575 -0.23187,0.57463 0,0.63209 0.10435,0.89067 0.23187,0.57463 0.12753,-0.31605 0.12753,-0.83321 0,-1.14926 z M 246.471,278.03821 c -0.10231,-0.82625 -0.18813,-0.26107 -0.19071,1.25595 -0.003,1.51702 0.0811,2.19304 0.18602,1.50227 0.10489,-0.69077 0.107,-1.93197 0.005,-2.75822 z m 79.06083,-2.76109 c -0.10995,-0.57183 -0.2041,-0.21222 -0.2092,0.79912 -0.005,1.01135 0.0849,1.47921 0.19992,1.03969 0.11506,-0.43951 0.11924,-1.26698 0.009,-1.83881 z m -72.19399,-0.92476 c -0.12753,-0.31605 -0.23187,-0.0575 -0.23187,0.57462 0,0.6321 0.10434,0.89068 0.23187,0.57463 0.12753,-0.31604 0.12753,-0.83321 0,-1.14925 z m 78.62327,-1.60022 c -0.11655,-0.44727 -0.21958,-0.19262 -0.22895,0.56588 -0.009,0.75851 0.086,1.12447 0.21192,0.81323 0.12592,-0.31123 0.13358,-0.93183 0.0171,-1.37911 z m -85.05911,-0.6983 c -0.12753,-0.31604 -0.23187,-0.0575 -0.23187,0.57463 0,0.63209 0.10434,0.89067 0.23187,0.57463 0.12752,-0.31605 0.12752,-0.83321 0,-1.14926 z m 6.90512,-0.89067 c -0.14675,-0.36672 -0.25568,-0.25779 -0.27774,0.27774 -0.02,0.4846 0.0887,0.75611 0.24145,0.60336 0.15275,-0.15276 0.16908,-0.54926 0.0363,-0.8811 z m 60.22103,-151.24219 c -0.14674,-0.36671 -0.25567,-0.25779 -0.27773,0.27774 -0.0199,0.4846 0.0887,0.75612 0.24144,0.60336 0.15276,-0.15276 0.16909,-0.54925 0.0363,-0.8811 z m -49.18818,-0.9194 c -0.14675,-0.36672 -0.25568,-0.25779 -0.27773,0.27774 -0.02,0.4846 0.0887,0.75611 0.24144,0.60336 0.15276,-0.15276 0.16909,-0.54926 0.0363,-0.8811 z m 28.07261,-18.18391 c -1.95948,-0.0862 -5.16591,-0.0862 -7.12539,0 -1.95948,0.0862 -0.35627,0.15667 3.5627,0.15667 3.91896,0 5.52217,-0.0705 3.56269,-0.15667 z m 30.915,141.47043 c 0.45971,-0.29708 0.49801,-0.44797 0.11493,-0.45266 -0.40004,-0.005 -0.57463,-0.91488 -0.57463,-2.99511 v -2.98807 h 15.42419 15.42418 l -0.0913,3.44777 -0.0913,3.44777 -15.44786,-0.007 c -10.14349,-0.005 -15.21108,-0.16006 -14.7583,-0.45267 z m -0.4597,-18.61796 v -3.44777 h 11.49257 11.49257 l -0.0323,3.5627 c -0.0219,2.41754 -0.1593,3.26717 -0.42739,2.64329 -0.33784,-0.7862 -0.39976,-0.80285 -0.42739,-0.11493 -0.0298,0.74293 -0.87646,0.80448 -11.06517,0.80448 H 323.3679 Z m 22.39499,-1.95374 c -0.10532,-0.6953 -0.19151,-0.12641 -0.19151,1.26419 0,1.3906 0.0862,1.95948 0.19151,1.26418 0.10533,-0.6953 0.10533,-1.83307 0,-2.52837 z m -22.39499,-13.42321 v -3.19483 l 15.42464,-0.034 15.42464,-0.034 -0.0943,3.22886 -0.0943,3.22884 H 338.6982 323.36784 Z m 7.44074,-4.04457 c 4.21882,-0.0758 11.25228,-0.0759 15.62989,-3.1e-4 4.37762,0.0756 0.92585,0.13764 -7.67059,0.13781 -8.59644,1.6e-4 -12.17812,-0.0617 -7.9593,-0.1375 z m -7.44074,-12.52782 v -3.67762 h 11.49257 11.49257 v 3.67762 3.67762 h -11.49257 -11.49257 z m 22.40061,-1.72388 c -0.0992,-0.94814 -0.18032,-0.17239 -0.18032,1.72388 0,1.89628 0.0811,2.67202 0.18032,1.72389 0.0992,-0.94814 0.0992,-2.49964 0,-3.44777 z m -22.40061,-13.90601 v -3.67762 h 15.40004 15.40004 v 3.67762 3.67762 h -15.40004 -15.40004 z m 11.12781,-12.75633 11.35767,-0.13132 0.15848,-3.32486 0.15849,-3.32486 0.0913,3.5627 0.0914,3.5627 -11.6075,-0.10652 -11.60749,-0.10652 z m -11.12077,-3.67804 c 0.005,-2.17312 0.14058,-2.89636 0.45266,-2.41344 0.29709,0.4597 0.44798,0.49801 0.45267,0.11492 0.005,-0.44238 2.37609,-0.57462 10.30116,-0.57462 11.58653,0 10.8522,-0.2514 10.8522,3.71522 v 2.26091 h -11.03286 -11.03287 l 0.007,-3.10299 z m -0.007,-15.51497 v -3.44777 h 15.40004 15.40004 v 2.98807 c 0,2.77869 -0.0725,2.99127 -1.03433,3.03389 -0.9923,0.0439 -0.98763,0.0608 0.11493,0.41388 0.63209,0.20243 -5.83248,0.38868 -14.36571,0.41388 l -15.51497,0.0458 z m 0,-15.17019 c 0,-2.08023 0.17459,-2.9902 0.57463,-2.9951 0.38308,-0.005 0.34478,-0.15559 -0.11493,-0.45267 -0.45529,-0.29423 3.25384,-0.44802 10.91794,-0.45266 l 11.6075,-0.007 v 3.44777 3.44777 h -11.49257 -11.49257 z m 22.52543,-0.4597 c 0,-1.64344 -0.15515,-2.9885 -0.34477,-2.98904 -0.18963,-4.6e-4 -0.27541,1.34411 -0.19063,2.98807 0.0848,1.64397 0.23993,2.98904 0.34478,2.98904 0.10484,0 0.19062,-1.34464 0.19062,-2.98807 z m -15.08473,-12.98569 c 4.21882,-0.0758 11.25228,-0.0759 15.62989,-3e-4 4.37762,0.0756 0.92585,0.13764 -7.67059,0.1378 -8.59644,1.7e-4 -12.17812,-0.0617 -7.9593,-0.1375 z m -7.44074,-3.10391 v -2.52836 h 15.40004 15.40004 v 2.52836 2.52837 h -15.40004 -15.40004 z m 7.44074,-3.33193 c 4.21882,-0.0758 11.25228,-0.0759 15.62989,-3e-4 4.37762,0.0756 0.92585,0.13764 -7.67059,0.1378 -8.59644,1.7e-4 -12.17812,-0.0617 -7.9593,-0.1375 z"
         id="path1962-2" />
      <rect
         style="fill:#ffffff;stroke:none;stroke-width:0.507885"
         id="rect2315"
         width="34.747986"
         height="83.58606"
         x="271.42151"
         y="112.57779"
         ry="25.286459" />
      <rect
         style="fill:#ffcb08;fill-opacity:1;stroke:none;stroke-width:0.325504"
         id="rect2315-79-5"
         width="20.295048"
         height="52.702015"
         x="279.43607"
         y="189.09811"
         ry="3.7170973" />
    </g>
  </g>
</svg>
